<svg xmlns="http://www.w3.org/2000/svg" viewBox="0 0 600 600" role="img">
<defs>
  <linearGradient id="g1" x1="0" y1="0" x2="1" y2="1">
    <stop offset="0" stop-color="#cfe6e6"/><stop offset="1" stop-color="#f4f7f7"/>
  </linearGradient>
</defs>
<rect width="600" height="600" fill="url(#g1)"/>
<circle cx="300" cy="300" r="150" fill="none" stroke="#0d7377" stroke-width="3"/>
<circle cx="300" cy="300" r="75.0" fill="#0d7377" opacity="0.18"/>
<line x1="450.0" y1="300.0" x2="458.0" y2="300.0" stroke="#0d7377" stroke-width="3" stroke-linecap="round"/>
<circle cx="458.0" cy="300.0" r="2.6" fill="#0d7377"/>
<line x1="438.6" y1="357.4" x2="446.0" y2="360.5" stroke="#0d7377" stroke-width="3" stroke-linecap="round"/>
<circle cx="446.0" cy="360.5" r="2.6" fill="#0d7377"/>
<line x1="406.1" y1="406.1" x2="411.7" y2="411.7" stroke="#0d7377" stroke-width="3" stroke-linecap="round"/>
<circle cx="411.7" cy="411.7" r="2.6" fill="#0d7377"/>
<line x1="357.4" y1="438.6" x2="360.5" y2="446.0" stroke="#0d7377" stroke-width="3" stroke-linecap="round"/>
<circle cx="360.5" cy="446.0" r="2.6" fill="#0d7377"/>
<line x1="300.0" y1="450.0" x2="300.0" y2="458.0" stroke="#0d7377" stroke-width="3" stroke-linecap="round"/>
<circle cx="300.0" cy="458.0" r="2.6" fill="#0d7377"/>
<line x1="242.6" y1="438.6" x2="239.5" y2="446.0" stroke="#0d7377" stroke-width="3" stroke-linecap="round"/>
<circle cx="239.5" cy="446.0" r="2.6" fill="#0d7377"/>
<line x1="193.9" y1="406.1" x2="188.3" y2="411.7" stroke="#0d7377" stroke-width="3" stroke-linecap="round"/>
<circle cx="188.3" cy="411.7" r="2.6" fill="#0d7377"/>
<line x1="161.4" y1="357.4" x2="154.0" y2="360.5" stroke="#0d7377" stroke-width="3" stroke-linecap="round"/>
<circle cx="154.0" cy="360.5" r="2.6" fill="#0d7377"/>
<line x1="150.0" y1="300.0" x2="142.0" y2="300.0" stroke="#0d7377" stroke-width="3" stroke-linecap="round"/>
<circle cx="142.0" cy="300.0" r="2.6" fill="#0d7377"/>
<line x1="161.4" y1="242.6" x2="154.0" y2="239.5" stroke="#0d7377" stroke-width="3" stroke-linecap="round"/>
<circle cx="154.0" cy="239.5" r="2.6" fill="#0d7377"/>
<line x1="193.9" y1="193.9" x2="188.3" y2="188.3" stroke="#0d7377" stroke-width="3" stroke-linecap="round"/>
<circle cx="188.3" cy="188.3" r="2.6" fill="#0d7377"/>
<line x1="242.6" y1="161.4" x2="239.5" y2="154.0" stroke="#0d7377" stroke-width="3" stroke-linecap="round"/>
<circle cx="239.5" cy="154.0" r="2.6" fill="#0d7377"/>
<line x1="300.0" y1="150.0" x2="300.0" y2="142.0" stroke="#0d7377" stroke-width="3" stroke-linecap="round"/>
<circle cx="300.0" cy="142.0" r="2.6" fill="#0d7377"/>
<line x1="357.4" y1="161.4" x2="360.5" y2="154.0" stroke="#0d7377" stroke-width="3" stroke-linecap="round"/>
<circle cx="360.5" cy="154.0" r="2.6" fill="#0d7377"/>
<line x1="406.1" y1="193.9" x2="411.7" y2="188.3" stroke="#0d7377" stroke-width="3" stroke-linecap="round"/>
<circle cx="411.7" cy="188.3" r="2.6" fill="#0d7377"/>
<line x1="438.6" y1="242.6" x2="446.0" y2="239.5" stroke="#0d7377" stroke-width="3" stroke-linecap="round"/>
<circle cx="446.0" cy="239.5" r="2.6" fill="#0d7377"/>
<circle cx="120" cy="180" r="26" fill="none" stroke="#d64545" stroke-width="2"/>
<circle cx="120" cy="180" r="13.0" fill="#d64545" opacity="0.18"/>
<line x1="146.0" y1="180.0" x2="154.0" y2="180.0" stroke="#d64545" stroke-width="2" stroke-linecap="round"/>
<circle cx="154.0" cy="180.0" r="2.6" fill="#d64545"/>
<line x1="138.4" y1="198.4" x2="144.0" y2="204.0" stroke="#d64545" stroke-width="2" stroke-linecap="round"/>
<circle cx="144.0" cy="204.0" r="2.6" fill="#d64545"/>
<line x1="120.0" y1="206.0" x2="120.0" y2="214.0" stroke="#d64545" stroke-width="2" stroke-linecap="round"/>
<circle cx="120.0" cy="214.0" r="2.6" fill="#d64545"/>
<line x1="101.6" y1="198.4" x2="96.0" y2="204.0" stroke="#d64545" stroke-width="2" stroke-linecap="round"/>
<circle cx="96.0" cy="204.0" r="2.6" fill="#d64545"/>
<line x1="94.0" y1="180.0" x2="86.0" y2="180.0" stroke="#d64545" stroke-width="2" stroke-linecap="round"/>
<circle cx="86.0" cy="180.0" r="2.6" fill="#d64545"/>
<line x1="101.6" y1="161.6" x2="96.0" y2="156.0" stroke="#d64545" stroke-width="2" stroke-linecap="round"/>
<circle cx="96.0" cy="156.0" r="2.6" fill="#d64545"/>
<line x1="120.0" y1="154.0" x2="120.0" y2="146.0" stroke="#d64545" stroke-width="2" stroke-linecap="round"/>
<circle cx="120.0" cy="146.0" r="2.6" fill="#d64545"/>
<line x1="138.4" y1="161.6" x2="144.0" y2="156.0" stroke="#d64545" stroke-width="2" stroke-linecap="round"/>
<circle cx="144.0" cy="156.0" r="2.6" fill="#d64545"/>
<circle cx="490" cy="210" r="34" fill="none" stroke="#d64545" stroke-width="2"/>
<circle cx="490" cy="210" r="17.0" fill="#d64545" opacity="0.18"/>
<line x1="524.0" y1="210.0" x2="532.0" y2="210.0" stroke="#d64545" stroke-width="2" stroke-linecap="round"/>
<circle cx="532.0" cy="210.0" r="2.6" fill="#d64545"/>
<line x1="514.0" y1="234.0" x2="519.7" y2="239.7" stroke="#d64545" stroke-width="2" stroke-linecap="round"/>
<circle cx="519.7" cy="239.7" r="2.6" fill="#d64545"/>
<line x1="490.0" y1="244.0" x2="490.0" y2="252.0" stroke="#d64545" stroke-width="2" stroke-linecap="round"/>
<circle cx="490.0" cy="252.0" r="2.6" fill="#d64545"/>
<line x1="466.0" y1="234.0" x2="460.3" y2="239.7" stroke="#d64545" stroke-width="2" stroke-linecap="round"/>
<circle cx="460.3" cy="239.7" r="2.6" fill="#d64545"/>
<line x1="456.0" y1="210.0" x2="448.0" y2="210.0" stroke="#d64545" stroke-width="2" stroke-linecap="round"/>
<circle cx="448.0" cy="210.0" r="2.6" fill="#d64545"/>
<line x1="466.0" y1="186.0" x2="460.3" y2="180.3" stroke="#d64545" stroke-width="2" stroke-linecap="round"/>
<circle cx="460.3" cy="180.3" r="2.6" fill="#d64545"/>
<line x1="490.0" y1="176.0" x2="490.0" y2="168.0" stroke="#d64545" stroke-width="2" stroke-linecap="round"/>
<circle cx="490.0" cy="168.0" r="2.6" fill="#d64545"/>
<line x1="514.0" y1="186.0" x2="519.7" y2="180.3" stroke="#d64545" stroke-width="2" stroke-linecap="round"/>
<circle cx="519.7" cy="180.3" r="2.6" fill="#d64545"/>
<circle cx="450" cy="480" r="22" fill="none" stroke="#d64545" stroke-width="2"/>
<circle cx="450" cy="480" r="11.0" fill="#d64545" opacity="0.18"/>
<line x1="472.0" y1="480.0" x2="480.0" y2="480.0" stroke="#d64545" stroke-width="2" stroke-linecap="round"/>
<circle cx="480.0" cy="480.0" r="2.6" fill="#d64545"/>
<line x1="465.6" y1="495.6" x2="471.2" y2="501.2" stroke="#d64545" stroke-width="2" stroke-linecap="round"/>
<circle cx="471.2" cy="501.2" r="2.6" fill="#d64545"/>
<line x1="450.0" y1="502.0" x2="450.0" y2="510.0" stroke="#d64545" stroke-width="2" stroke-linecap="round"/>
<circle cx="450.0" cy="510.0" r="2.6" fill="#d64545"/>
<line x1="434.4" y1="495.6" x2="428.8" y2="501.2" stroke="#d64545" stroke-width="2" stroke-linecap="round"/>
<circle cx="428.8" cy="501.2" r="2.6" fill="#d64545"/>
<line x1="428.0" y1="480.0" x2="420.0" y2="480.0" stroke="#d64545" stroke-width="2" stroke-linecap="round"/>
<circle cx="420.0" cy="480.0" r="2.6" fill="#d64545"/>
<line x1="434.4" y1="464.4" x2="428.8" y2="458.8" stroke="#d64545" stroke-width="2" stroke-linecap="round"/>
<circle cx="428.8" cy="458.8" r="2.6" fill="#d64545"/>
<line x1="450.0" y1="458.0" x2="450.0" y2="450.0" stroke="#d64545" stroke-width="2" stroke-linecap="round"/>
<circle cx="450.0" cy="450.0" r="2.6" fill="#d64545"/>
<line x1="465.6" y1="464.4" x2="471.2" y2="458.8" stroke="#d64545" stroke-width="2" stroke-linecap="round"/>
<circle cx="471.2" cy="458.8" r="2.6" fill="#d64545"/>
<circle cx="150" cy="470" r="30" fill="none" stroke="#d64545" stroke-width="2"/>
<circle cx="150" cy="470" r="15.0" fill="#d64545" opacity="0.18"/>
<line x1="180.0" y1="470.0" x2="188.0" y2="470.0" stroke="#d64545" stroke-width="2" stroke-linecap="round"/>
<circle cx="188.0" cy="470.0" r="2.6" fill="#d64545"/>
<line x1="171.2" y1="491.2" x2="176.9" y2="496.9" stroke="#d64545" stroke-width="2" stroke-linecap="round"/>
<circle cx="176.9" cy="496.9" r="2.6" fill="#d64545"/>
<line x1="150.0" y1="500.0" x2="150.0" y2="508.0" stroke="#d64545" stroke-width="2" stroke-linecap="round"/>
<circle cx="150.0" cy="508.0" r="2.6" fill="#d64545"/>
<line x1="128.8" y1="491.2" x2="123.1" y2="496.9" stroke="#d64545" stroke-width="2" stroke-linecap="round"/>
<circle cx="123.1" cy="496.9" r="2.6" fill="#d64545"/>
<line x1="120.0" y1="470.0" x2="112.0" y2="470.0" stroke="#d64545" stroke-width="2" stroke-linecap="round"/>
<circle cx="112.0" cy="470.0" r="2.6" fill="#d64545"/>
<line x1="128.8" y1="448.8" x2="123.1" y2="443.1" stroke="#d64545" stroke-width="2" stroke-linecap="round"/>
<circle cx="123.1" cy="443.1" r="2.6" fill="#d64545"/>
<line x1="150.0" y1="440.0" x2="150.0" y2="432.0" stroke="#d64545" stroke-width="2" stroke-linecap="round"/>
<circle cx="150.0" cy="432.0" r="2.6" fill="#d64545"/>
<line x1="171.2" y1="448.8" x2="176.9" y2="443.1" stroke="#d64545" stroke-width="2" stroke-linecap="round"/>
<circle cx="176.9" cy="443.1" r="2.6" fill="#d64545"/>
<circle cx="300" cy="70" r="20" fill="none" stroke="#d64545" stroke-width="2"/>
<circle cx="300" cy="70" r="10.0" fill="#d64545" opacity="0.18"/>
<line x1="320.0" y1="70.0" x2="328.0" y2="70.0" stroke="#d64545" stroke-width="2" stroke-linecap="round"/>
<circle cx="328.0" cy="70.0" r="2.6" fill="#d64545"/>
<line x1="314.1" y1="84.1" x2="319.8" y2="89.8" stroke="#d64545" stroke-width="2" stroke-linecap="round"/>
<circle cx="319.8" cy="89.8" r="2.6" fill="#d64545"/>
<line x1="300.0" y1="90.0" x2="300.0" y2="98.0" stroke="#d64545" stroke-width="2" stroke-linecap="round"/>
<circle cx="300.0" cy="98.0" r="2.6" fill="#d64545"/>
<line x1="285.9" y1="84.1" x2="280.2" y2="89.8" stroke="#d64545" stroke-width="2" stroke-linecap="round"/>
<circle cx="280.2" cy="89.8" r="2.6" fill="#d64545"/>
<line x1="280.0" y1="70.0" x2="272.0" y2="70.0" stroke="#d64545" stroke-width="2" stroke-linecap="round"/>
<circle cx="272.0" cy="70.0" r="2.6" fill="#d64545"/>
<line x1="285.9" y1="55.9" x2="280.2" y2="50.2" stroke="#d64545" stroke-width="2" stroke-linecap="round"/>
<circle cx="280.2" cy="50.2" r="2.6" fill="#d64545"/>
<line x1="300.0" y1="50.0" x2="300.0" y2="42.0" stroke="#d64545" stroke-width="2" stroke-linecap="round"/>
<circle cx="300.0" cy="42.0" r="2.6" fill="#d64545"/>
<line x1="314.1" y1="55.9" x2="319.8" y2="50.2" stroke="#d64545" stroke-width="2" stroke-linecap="round"/>
<circle cx="319.8" cy="50.2" r="2.6" fill="#d64545"/>
</svg>