<svg xmlns="http://www.w3.org/2000/svg" viewBox="0 0 480 270" role="img">
<defs>
  <linearGradient id="g1" x1="0" y1="0" x2="1" y2="1">
    <stop offset="0" stop-color="#cfe6e6"/><stop offset="1" stop-color="#f4f7f7"/>
  </linearGradient>
</defs>
<rect width="480" height="270" fill="url(#g1)"/>
<rect x="0" y="0" width="480" height="270" fill="none"/>
<circle cx="150" cy="120" r="52" fill="none" stroke="#0d7377" stroke-width="2.4"/>
<circle cx="150" cy="120" r="26.0" fill="#0d7377" opacity="0.18"/>
<line x1="202.0" y1="120.0" x2="210.0" y2="120.0" stroke="#0d7377" stroke-width="2.4" stroke-linecap="round"/>
<circle cx="210.0" cy="120.0" r="2.6" fill="#0d7377"/>
<line x1="195.0" y1="146.0" x2="202.0" y2="150.0" stroke="#0d7377" stroke-width="2.4" stroke-linecap="round"/>
<circle cx="202.0" cy="150.0" r="2.6" fill="#0d7377"/>
<line x1="176.0" y1="165.0" x2="180.0" y2="172.0" stroke="#0d7377" stroke-width="2.4" stroke-linecap="round"/>
<circle cx="180.0" cy="172.0" r="2.6" fill="#0d7377"/>
<line x1="150.0" y1="172.0" x2="150.0" y2="180.0" stroke="#0d7377" stroke-width="2.4" stroke-linecap="round"/>
<circle cx="150.0" cy="180.0" r="2.6" fill="#0d7377"/>
<line x1="124.0" y1="165.0" x2="120.0" y2="172.0" stroke="#0d7377" stroke-width="2.4" stroke-linecap="round"/>
<circle cx="120.0" cy="172.0" r="2.6" fill="#0d7377"/>
<line x1="105.0" y1="146.0" x2="98.0" y2="150.0" stroke="#0d7377" stroke-width="2.4" stroke-linecap="round"/>
<circle cx="98.0" cy="150.0" r="2.6" fill="#0d7377"/>
<line x1="98.0" y1="120.0" x2="90.0" y2="120.0" stroke="#0d7377" stroke-width="2.4" stroke-linecap="round"/>
<circle cx="90.0" cy="120.0" r="2.6" fill="#0d7377"/>
<line x1="105.0" y1="94.0" x2="98.0" y2="90.0" stroke="#0d7377" stroke-width="2.4" stroke-linecap="round"/>
<circle cx="98.0" cy="90.0" r="2.6" fill="#0d7377"/>
<line x1="124.0" y1="75.0" x2="120.0" y2="68.0" stroke="#0d7377" stroke-width="2.4" stroke-linecap="round"/>
<circle cx="120.0" cy="68.0" r="2.6" fill="#0d7377"/>
<line x1="150.0" y1="68.0" x2="150.0" y2="60.0" stroke="#0d7377" stroke-width="2.4" stroke-linecap="round"/>
<circle cx="150.0" cy="60.0" r="2.6" fill="#0d7377"/>
<line x1="176.0" y1="75.0" x2="180.0" y2="68.0" stroke="#0d7377" stroke-width="2.4" stroke-linecap="round"/>
<circle cx="180.0" cy="68.0" r="2.6" fill="#0d7377"/>
<line x1="195.0" y1="94.0" x2="202.0" y2="90.0" stroke="#0d7377" stroke-width="2.4" stroke-linecap="round"/>
<circle cx="202.0" cy="90.0" r="2.6" fill="#0d7377"/>
<path d="M250 120 h60" stroke="#16302f" stroke-width="2" stroke-dasharray="4 5" opacity="0.5"/>
<text x="330" y="100" font-family="'Clash Display',serif" font-size="40" fill="#d64545" font-weight="700">528</text>
<text x="330" y="128" font-family="'General Sans',sans-serif" font-size="16" fill="#16302f">BCE origin</text>
<text x="24" y="248" font-family="'General Sans',sans-serif" font-size="15" fill="#08484a" opacity="0.55" font-weight="600">Origins & Emergence</text>
</svg>