<svg xmlns="http://www.w3.org/2000/svg" viewBox="0 0 480 270" role="img">
<defs>
  <linearGradient id="g1" x1="0" y1="0" x2="1" y2="1">
    <stop offset="0" stop-color="#cfe6e6"/><stop offset="1" stop-color="#f4f7f7"/>
  </linearGradient>
</defs>
<rect width="480" height="270" fill="url(#g1)"/>
<rect x="0" y="0" width="480" height="270" fill="none"/>
<circle cx="240" cy="120" r="60" fill="none" stroke="#0d7377" stroke-width="2.6"/>
<circle cx="240" cy="120" r="30.0" fill="#0d7377" opacity="0.18"/>
<line x1="300.0" y1="120.0" x2="308.0" y2="120.0" stroke="#0d7377" stroke-width="2.6" stroke-linecap="round"/>
<circle cx="308.0" cy="120.0" r="2.6" fill="#0d7377"/>
<line x1="294.1" y1="146.0" x2="301.3" y2="149.5" stroke="#0d7377" stroke-width="2.6" stroke-linecap="round"/>
<circle cx="301.3" cy="149.5" r="2.6" fill="#0d7377"/>
<line x1="277.4" y1="166.9" x2="282.4" y2="173.2" stroke="#0d7377" stroke-width="2.6" stroke-linecap="round"/>
<circle cx="282.4" cy="173.2" r="2.6" fill="#0d7377"/>
<line x1="253.4" y1="178.5" x2="255.1" y2="186.3" stroke="#0d7377" stroke-width="2.6" stroke-linecap="round"/>
<circle cx="255.1" cy="186.3" r="2.6" fill="#0d7377"/>
<line x1="226.6" y1="178.5" x2="224.9" y2="186.3" stroke="#0d7377" stroke-width="2.6" stroke-linecap="round"/>
<circle cx="224.9" cy="186.3" r="2.6" fill="#0d7377"/>
<line x1="202.6" y1="166.9" x2="197.6" y2="173.2" stroke="#0d7377" stroke-width="2.6" stroke-linecap="round"/>
<circle cx="197.6" cy="173.2" r="2.6" fill="#0d7377"/>
<line x1="185.9" y1="146.0" x2="178.7" y2="149.5" stroke="#0d7377" stroke-width="2.6" stroke-linecap="round"/>
<circle cx="178.7" cy="149.5" r="2.6" fill="#0d7377"/>
<line x1="180.0" y1="120.0" x2="172.0" y2="120.0" stroke="#0d7377" stroke-width="2.6" stroke-linecap="round"/>
<circle cx="172.0" cy="120.0" r="2.6" fill="#0d7377"/>
<line x1="185.9" y1="94.0" x2="178.7" y2="90.5" stroke="#0d7377" stroke-width="2.6" stroke-linecap="round"/>
<circle cx="178.7" cy="90.5" r="2.6" fill="#0d7377"/>
<line x1="202.6" y1="73.1" x2="197.6" y2="66.8" stroke="#0d7377" stroke-width="2.6" stroke-linecap="round"/>
<circle cx="197.6" cy="66.8" r="2.6" fill="#0d7377"/>
<line x1="226.6" y1="61.5" x2="224.9" y2="53.7" stroke="#0d7377" stroke-width="2.6" stroke-linecap="round"/>
<circle cx="224.9" cy="53.7" r="2.6" fill="#0d7377"/>
<line x1="253.4" y1="61.5" x2="255.1" y2="53.7" stroke="#0d7377" stroke-width="2.6" stroke-linecap="round"/>
<circle cx="255.1" cy="53.7" r="2.6" fill="#0d7377"/>
<line x1="277.4" y1="73.1" x2="282.4" y2="66.8" stroke="#0d7377" stroke-width="2.6" stroke-linecap="round"/>
<circle cx="282.4" cy="66.8" r="2.6" fill="#0d7377"/>
<line x1="294.1" y1="94.0" x2="301.3" y2="90.5" stroke="#0d7377" stroke-width="2.6" stroke-linecap="round"/>
<circle cx="301.3" cy="90.5" r="2.6" fill="#0d7377"/>
<circle cx="240" cy="120" r="16" fill="#d64545" opacity="0.9"/>
<text x="240" y="126" text-anchor="middle" font-family="'General Sans',sans-serif" font-size="13" fill="#fff" font-weight="700">RNA</text>
<text x="24" y="248" font-family="'General Sans',sans-serif" font-size="15" fill="#08484a" opacity="0.55" font-weight="600">Virology</text>
</svg>