<svg xmlns="http://www.w3.org/2000/svg" viewBox="0 0 1200 630" role="img">
<rect width="1200" height="630" fill="#16302f"/>
<rect width="1200" height="630" fill="url(#gg)"/>
<defs><radialGradient id="gg" cx="0.72" cy="0.2" r="0.9">
<stop offset="0" stop-color="#08484a"/><stop offset="1" stop-color="#16302f"/>
</radialGradient></defs>
<circle cx="950" cy="300" r="150" fill="none" stroke="#4fc4c8" stroke-width="3"/>
<circle cx="950" cy="300" r="75.0" fill="#4fc4c8" opacity="0.18"/>
<line x1="1100.0" y1="300.0" x2="1108.0" y2="300.0" stroke="#4fc4c8" stroke-width="3" stroke-linecap="round"/>
<circle cx="1108.0" cy="300.0" r="2.6" fill="#4fc4c8"/>
<line x1="1088.6" y1="357.4" x2="1096.0" y2="360.5" stroke="#4fc4c8" stroke-width="3" stroke-linecap="round"/>
<circle cx="1096.0" cy="360.5" r="2.6" fill="#4fc4c8"/>
<line x1="1056.1" y1="406.1" x2="1061.7" y2="411.7" stroke="#4fc4c8" stroke-width="3" stroke-linecap="round"/>
<circle cx="1061.7" cy="411.7" r="2.6" fill="#4fc4c8"/>
<line x1="1007.4" y1="438.6" x2="1010.5" y2="446.0" stroke="#4fc4c8" stroke-width="3" stroke-linecap="round"/>
<circle cx="1010.5" cy="446.0" r="2.6" fill="#4fc4c8"/>
<line x1="950.0" y1="450.0" x2="950.0" y2="458.0" stroke="#4fc4c8" stroke-width="3" stroke-linecap="round"/>
<circle cx="950.0" cy="458.0" r="2.6" fill="#4fc4c8"/>
<line x1="892.6" y1="438.6" x2="889.5" y2="446.0" stroke="#4fc4c8" stroke-width="3" stroke-linecap="round"/>
<circle cx="889.5" cy="446.0" r="2.6" fill="#4fc4c8"/>
<line x1="843.9" y1="406.1" x2="838.3" y2="411.7" stroke="#4fc4c8" stroke-width="3" stroke-linecap="round"/>
<circle cx="838.3" cy="411.7" r="2.6" fill="#4fc4c8"/>
<line x1="811.4" y1="357.4" x2="804.0" y2="360.5" stroke="#4fc4c8" stroke-width="3" stroke-linecap="round"/>
<circle cx="804.0" cy="360.5" r="2.6" fill="#4fc4c8"/>
<line x1="800.0" y1="300.0" x2="792.0" y2="300.0" stroke="#4fc4c8" stroke-width="3" stroke-linecap="round"/>
<circle cx="792.0" cy="300.0" r="2.6" fill="#4fc4c8"/>
<line x1="811.4" y1="242.6" x2="804.0" y2="239.5" stroke="#4fc4c8" stroke-width="3" stroke-linecap="round"/>
<circle cx="804.0" cy="239.5" r="2.6" fill="#4fc4c8"/>
<line x1="843.9" y1="193.9" x2="838.3" y2="188.3" stroke="#4fc4c8" stroke-width="3" stroke-linecap="round"/>
<circle cx="838.3" cy="188.3" r="2.6" fill="#4fc4c8"/>
<line x1="892.6" y1="161.4" x2="889.5" y2="154.0" stroke="#4fc4c8" stroke-width="3" stroke-linecap="round"/>
<circle cx="889.5" cy="154.0" r="2.6" fill="#4fc4c8"/>
<line x1="950.0" y1="150.0" x2="950.0" y2="142.0" stroke="#4fc4c8" stroke-width="3" stroke-linecap="round"/>
<circle cx="950.0" cy="142.0" r="2.6" fill="#4fc4c8"/>
<line x1="1007.4" y1="161.4" x2="1010.5" y2="154.0" stroke="#4fc4c8" stroke-width="3" stroke-linecap="round"/>
<circle cx="1010.5" cy="154.0" r="2.6" fill="#4fc4c8"/>
<line x1="1056.1" y1="193.9" x2="1061.7" y2="188.3" stroke="#4fc4c8" stroke-width="3" stroke-linecap="round"/>
<circle cx="1061.7" cy="188.3" r="2.6" fill="#4fc4c8"/>
<line x1="1088.6" y1="242.6" x2="1096.0" y2="239.5" stroke="#4fc4c8" stroke-width="3" stroke-linecap="round"/>
<circle cx="1096.0" cy="239.5" r="2.6" fill="#4fc4c8"/>
<circle cx="1080" cy="120" r="40" fill="none" stroke="#d64545" stroke-width="2"/>
<circle cx="1080" cy="120" r="20.0" fill="#d64545" opacity="0.18"/>
<line x1="1120.0" y1="120.0" x2="1128.0" y2="120.0" stroke="#d64545" stroke-width="2" stroke-linecap="round"/>
<circle cx="1128.0" cy="120.0" r="2.6" fill="#d64545"/>
<line x1="1108.3" y1="148.3" x2="1113.9" y2="153.9" stroke="#d64545" stroke-width="2" stroke-linecap="round"/>
<circle cx="1113.9" cy="153.9" r="2.6" fill="#d64545"/>
<line x1="1080.0" y1="160.0" x2="1080.0" y2="168.0" stroke="#d64545" stroke-width="2" stroke-linecap="round"/>
<circle cx="1080.0" cy="168.0" r="2.6" fill="#d64545"/>
<line x1="1051.7" y1="148.3" x2="1046.1" y2="153.9" stroke="#d64545" stroke-width="2" stroke-linecap="round"/>
<circle cx="1046.1" cy="153.9" r="2.6" fill="#d64545"/>
<line x1="1040.0" y1="120.0" x2="1032.0" y2="120.0" stroke="#d64545" stroke-width="2" stroke-linecap="round"/>
<circle cx="1032.0" cy="120.0" r="2.6" fill="#d64545"/>
<line x1="1051.7" y1="91.7" x2="1046.1" y2="86.1" stroke="#d64545" stroke-width="2" stroke-linecap="round"/>
<circle cx="1046.1" cy="86.1" r="2.6" fill="#d64545"/>
<line x1="1080.0" y1="80.0" x2="1080.0" y2="72.0" stroke="#d64545" stroke-width="2" stroke-linecap="round"/>
<circle cx="1080.0" cy="72.0" r="2.6" fill="#d64545"/>
<line x1="1108.3" y1="91.7" x2="1113.9" y2="86.1" stroke="#d64545" stroke-width="2" stroke-linecap="round"/>
<circle cx="1113.9" cy="86.1" r="2.6" fill="#d64545"/>
<circle cx="830" cy="500" r="34" fill="none" stroke="#4fc4c8" stroke-width="2"/>
<circle cx="830" cy="500" r="17.0" fill="#4fc4c8" opacity="0.18"/>
<line x1="864.0" y1="500.0" x2="872.0" y2="500.0" stroke="#4fc4c8" stroke-width="2" stroke-linecap="round"/>
<circle cx="872.0" cy="500.0" r="2.6" fill="#4fc4c8"/>
<line x1="854.0" y1="524.0" x2="859.7" y2="529.7" stroke="#4fc4c8" stroke-width="2" stroke-linecap="round"/>
<circle cx="859.7" cy="529.7" r="2.6" fill="#4fc4c8"/>
<line x1="830.0" y1="534.0" x2="830.0" y2="542.0" stroke="#4fc4c8" stroke-width="2" stroke-linecap="round"/>
<circle cx="830.0" cy="542.0" r="2.6" fill="#4fc4c8"/>
<line x1="806.0" y1="524.0" x2="800.3" y2="529.7" stroke="#4fc4c8" stroke-width="2" stroke-linecap="round"/>
<circle cx="800.3" cy="529.7" r="2.6" fill="#4fc4c8"/>
<line x1="796.0" y1="500.0" x2="788.0" y2="500.0" stroke="#4fc4c8" stroke-width="2" stroke-linecap="round"/>
<circle cx="788.0" cy="500.0" r="2.6" fill="#4fc4c8"/>
<line x1="806.0" y1="476.0" x2="800.3" y2="470.3" stroke="#4fc4c8" stroke-width="2" stroke-linecap="round"/>
<circle cx="800.3" cy="470.3" r="2.6" fill="#4fc4c8"/>
<line x1="830.0" y1="466.0" x2="830.0" y2="458.0" stroke="#4fc4c8" stroke-width="2" stroke-linecap="round"/>
<circle cx="830.0" cy="458.0" r="2.6" fill="#4fc4c8"/>
<line x1="854.0" y1="476.0" x2="859.7" y2="470.3" stroke="#4fc4c8" stroke-width="2" stroke-linecap="round"/>
<circle cx="859.7" cy="470.3" r="2.6" fill="#4fc4c8"/>
<text x="90" y="250" font-family="'Clash Display',Georgia,serif" font-size="82" fill="#ffffff" font-weight="700">Measles</text>
<text x="92" y="330" font-family="'Clash Display',Georgia,serif" font-size="46" fill="#4fc4c8" font-weight="600">A Complete Learning Guide</text>
<text x="94" y="400" font-family="'General Sans',sans-serif" font-size="26" fill="#cfe6e6">Origins · Virology · Epidemiology · Vaccine history</text>
<text x="94" y="440" font-family="'General Sans',sans-serif" font-size="26" fill="#cfe6e6">Interactive modules, quizzes &amp; timeline</text>
<text x="94" y="560" font-family="'General Sans',sans-serif" font-size="22" fill="#7f9694">Rene F. Najera, DrPH · Evidence-based · Free &amp; open</text>
</svg>